<?xml version="1.0" encoding="utf-8"?>
<COLLADA xmlns="http://www.collada.org/2005/11/COLLADASchema" version="1.4.1">
  <asset><contributor><authoring_tool>scripts/cad/build_arm_description.py</authoring_tool></contributor><unit name="meter" meter="1"/><up_axis>Z_UP</up_axis></asset>
  <library_effects>
    <effect id="m0-fx"><profile_COMMON><technique sid="common"><phong><diffuse><color>1 1 1 1</color></diffuse><specular><color>0.25 0.25 0.25 1</color></specular><shininess><float>30</float></shininess></phong></technique></profile_COMMON></effect>
  </library_effects>
  <library_materials>
    <material id="m0"><instance_effect url="#m0-fx"/></material>
  </library_materials>
  <library_geometries>
    <geometry id="g" name="wrist_pitch_link"><mesh>
        <source id="p"><float_array id="pa" count="3594">-0.026 -0.005 0.036 -0.0195 -0.0085 0.036 -0.021 0 0.036 -0.0195 0.0085 0.036 -0.026 0.005 0.036 -0.007 0.025 0.036 0.002 0.021 0.036 0.0025 0.026 0.036 -0.0225 0.014 0.036 -0.014 0.016 0.036 -0.016 0.021 0.036 0.0195 -0.0175 0.036 0.0105 -0.0185 0.036 0.0115 -0.0235 0.036 -0.0065 0.02 0.036 0.0115 0.0235 0.036 0.0105 0.0185 0.036 -0.007 -0.025 0.036 0.002 -0.021 0.036 -0.0065 -0.02 0.036 0.0195 0.0175 0.036 0.017 0.0125 0.036 0.0025 -0.026 0.036 -0.0225 -0.014 0.036 -0.014 -0.016 0.036 0.0245 -0.0095 0.036 0.017 -0.0125 0.036 -0.016 -0.021 0.036 0.0205 -0.0045 0.036 0.026 0 0.036 0.021 0 0.036 0.0205 0.0045 0.036 0.0245 0.0095 0.036 -0.023 -0.041 -0.033 -0.012 -0.033 -0.038 -0.012 -0.041 -0.038 0 -0.033 -0.04 0 -0.041 -0.04 0.012 -0.033 -0.038 0.012 -0.041 -0.038 0.023 -0.033 -0.033 0.023 -0.041 -0.033 0.0315 -0.033 -0.0245 0.0315 -0.041 -0.0245 0.0375 -0.033 -0.014 0.0375 -0.041 -0.014 0.04 -0.033 -0.002 0.04 -0.041 -0.002 0.039 -0.033 0.01 0.039 -0.041 0.01 -0.0315 -0.041 -0.0245 -0.023 -0.033 -0.033 0.0285 -0.033 0.028 0.026 -0.0175 0.0305 0.026 -0.041 0.03 0.028 -0.013 0.0285 0.0285 -0.0125 0.028 0.034 -0.041 0.021 0.034 -0.033 0.021 0.0175 -0.028 0.036 0.0215 -0.0235 0.0335 0.0245 -0.02 0.0315 0.018 -0.0265 0.0355 0.017 -0.0275 0.036 0.0175 -0.041 0.036 -0.0375 -0.041 -0.014 -0.0315 -0.033 -0.0245 -0.04 -0.041 -0.002 -0.0375 -0.033 -0.014 -0.039 -0.041 0.01 -0.04 -0.033 -0.002 -0.034 -0.041 0.021 -0.039 -0.033 0.01 -0.0285 -0.033 0.028 -0.028 -0.014 0.0285 -0.0285 -0.0125 0.028 -0.026 -0.018 0.0305 -0.026 -0.041 0.03 -0.0175 -0.028 0.036 -0.02 -0.025 0.0345 -0.0235 -0.0215 0.0325 -0.0175 -0.041 0.036 -0.017 -0.0275 0.036 -0.034 -0.033 0.021 0.023 0.041 -0.033 0.016 0.041 -0.014 0.0315 0.041 -0.0245 0 0.041 -0.021 0.012 0.041 -0.038 0 0.041 -0.04 -0.023 0.041 -0.033 -0.016 0.041 -0.014 -0.0085 0.041 -0.0195 -0.021 0.041 0.002 -0.04 0.041 -0.002 -0.039 0.041 0.01 -0.0045 0.041 0.0205 0.0175 0.041 0.036 0.0045 0.041 0.0205 0.02 0.041 -0.0065 0.0375 0.041 -0.014 0.039 0.041 0.01 0.0185 0.041 0.0105 0.034 0.041 0.021 -0.0175 0.041 0.036 -0.0125 0.041 0.017 -0.026 0.041 0.03 -0.0185 0.041 0.0105 -0.034 0.041 0.021 -0.02 0.041 -0.0065 -0.0375 0.041 -0.014 -0.0315 0.041 -0.0245 -0.012 0.041 -0.038 0.0085 0.041 -0.0195 0.04 0.041 -0.002 0.021 0.041 0.002 0.026 0.041 0.03 0.0125 0.041 0.017 0.023 -0.041 -0.033 0.0085 -0.041 -0.0195 0.012 -0.041 -0.038 -0.02 -0.041 -0.0065 -0.04 -0.041 -0.002 -0.0375 -0.041 -0.014 -0.0185 -0.041 0.0105 -0.039 -0.041 0.01 -0.021 -0.041 0.002 -0.0175 -0.041 0.036 -0.0125 -0.041 0.017 -0.0045 -0.041 0.0205 0.04 -0.041 -0.002 0.02 -0.041 -0.0065 0.0375 -0.041 -0.014 0.0315 -0.041 -0.0245 0.016 -0.041 -0.014 -0.026 -0.041 0.03 0.021 -0.041 0.002 0.039 -0.041 0.01 -0.034 -0.041 0.021 0.0175 -0.041 0.036 0.0125 -0.041 0.017 0.026 -0.041 0.03 0.0045 -0.041 0.0205 0.0185 -0.041 0.0105 0.034 -0.041 0.021 -0.016 -0.041 -0.014 -0.023 -0.041 -0.033 -0.0085 -0.041 -0.0195 -0.0315 -0.041 -0.0245 -0.012 -0.041 -0.038 0 -0.041 -0.021 0 -0.041 -0.04 0.0175 0.041 0.036 0.0055 0.0325 0.036 0.0115 0.031 0.036 -0.0175 0.041 0.036 -0.0165 0.0285 0.036 -0.0115 0.031 0.036 -0.0175 0.028 0.036 -0.0055 0.0325 0.036 0 0.033 0.036 0.0175 0.028 0.036 -0.0175 -0.041 0.036 -0.0115 -0.031 0.036 -0.0175 -0.028 0.036 0 -0.033 0.036 0.0175 -0.041 0.036 0.0055 -0.0325 0.036 0.0165 -0.0285 0.036 0.0175 -0.028 0.036 -0.0055 -0.0325 0.036 0.0115 -0.031 0.036 -0.0195 0.0085 0.036 -0.021 0 0.028 -0.0195 0.0085 0.028 -0.014 0.016 0.036 -0.014 0.016 0.028 -0.0065 0.02 0.036 -0.0065 0.02 0.028 0.002 0.021 0.036 0.002 0.021 0.028 0.0105 0.0185 0.036 0.0105 0.0185 0.028 0.017 0.0125 0.036 0.017 0.0125 0.028 0.0205 0.0045 0.036 0.0205 0.0045 0.028 0.0205 -0.0045 0.028 0.021 0 0.036 0.021 0 0.028 0.017 -0.0125 0.036 0.017 -0.0125 0.028 0.0105 -0.0185 0.036 0.0105 -0.0185 0.028 0.002 -0.021 0.036 0.002 -0.021 0.028 -0.0195 -0.0085 0.036 -0.014 -0.016 0.028 -0.0195 -0.0085 0.028 -0.021 0 0.036 -0.014 -0.016 0.036 -0.0065 -0.02 0.028 -0.0065 -0.02 0.036 0.0205 -0.0045 0.036 -0.029 -0.0085 0.028 -0.0195 -0.0085 0.028 -0.0285 -0.01 0.028 -0.0195 0.0085 0.028 -0.0295 0.005 0.028 -0.029 0.007 0.028 -0.0285 0.0125 0.028 -0.014 0.016 0.028 0.0285 0.0125 0.028 0.017 0.0125 0.028 0.0285 0.033 0.028 0.0295 0.005 0.028 0.0205 0.0045 0.028 0.029 0.0075 0.028 -0.0285 -0.033 0.028 -0.014 -0.016 0.028 -0.0065 -0.02 0.028 -0.0285 -0.0125 0.028 -0.029 0.009 0.028 -0.0285 0.033 0.028 -0.0065 0.02 0.028 0.002 0.021 0.028 0.0105 0.0185 0.028 0.021 0 0.028 -0.021 0 0.028 -0.0295 -0.005 0.028 -0.03 0 0.028 -0.0285 0.0095 0.028 0.029 0.0085 0.028 0.0285 -0.033 0.028 0.002 -0.021 0.028 0.0105 -0.0185 0.028 0.03 0 0.028 0.0285 0.01 0.028 -0.029 -0.0075 0.028 0.017 -0.0125 0.028 0.0285 -0.0125 0.028 0.0285 -0.0095 0.028 0.0295 -0.005 0.028 0.0205 -0.0045 0.028 0.029 -0.009 0.028 0.029 -0.007 0.028 -0.0175 0.028 0.036 -0.026 0.041 0.03 -0.0215 0.0235 0.0335 -0.0245 0.02 0.0315 -0.026 0.0175 0.0305 -0.018 0.0265 0.0355 -0.017 0.0275 0.036 0.02 0.025 0.0345 0.0175 0.028 0.036 0.017 0.0275 0.036 0.026 0.041 0.03 0.0175 0.041 0.036 0.0235 0.0215 0.0325 0.026 0.018 0.0305 0.0285 0.033 0.028 0.034 0.041 0.021 0.028 0.014 0.0285 0.0285 0.0125 0.028 0.039 0.033 0.01 0.034 0.033 0.021 0.04 0.033 -0.002 0.039 0.041 0.01 0.0375 0.033 -0.014 0.04 0.041 -0.002 0.0315 0.033 -0.0245 0.0375 0.041 -0.014 0.023 0.033 -0.033 0.0315 0.041 -0.0245 0.012 0.033 -0.038 0.023 0.041 -0.033 0 0.033 -0.04 0.012 0.041 -0.038 -0.012 0.033 -0.038 0 0.041 -0.04 -0.023 0.033 -0.033 -0.012 0.041 -0.038 -0.0315 0.033 -0.0245 -0.023 0.041 -0.033 -0.0375 0.033 -0.014 -0.0315 0.041 -0.0245 -0.04 0.033 -0.002 -0.0375 0.041 -0.014 -0.039 0.033 0.01 -0.04 0.041 -0.002 -0.034 0.033 0.021 -0.039 0.041 0.01 -0.0285 0.033 0.028 -0.028 0.013 0.0285 -0.0285 0.0125 0.028 -0.034 0.041 0.021 -0.0175 0.041 0.036 0.023 0.033 -0.033 0.016 0.033 -0.014 0.0085 0.033 -0.0195 0.021 0.033 0.002 0.04 0.033 -0.002 0.039 0.033 0.01 -0.0285 0.033 0.028 -0.0125 0.033 0.017 -0.0045 0.033 0.0205 -0.0185 0.033 0.0105 -0.039 0.033 0.01 -0.021 0.033 0.002 -0.02 0.033 -0.0065 -0.04 0.033 -0.002 -0.0375 0.033 -0.014 0.0315 0.033 -0.0245 0.02 0.033 -0.0065 -0.034 0.033 0.021 -0.0315 0.033 -0.0245 -0.016 0.033 -0.014 0.0185 0.033 0.0105 -0.023 0.033 -0.033 -0.0085 0.033 -0.0195 -0.012 0.033 -0.038 0 0.033 -0.021 0 0.033 -0.04 0.012 0.033 -0.038 0.0285 0.033 0.028 0.0045 0.033 0.0205 0.0375 0.033 -0.014 0.0125 0.033 0.017 0.034 0.033 0.021 -0.012 -0.033 -0.038 0 -0.033 -0.021 0 -0.033 -0.04 0.016 -0.033 -0.014 0.023 -0.033 -0.033 0.0085 -0.033 -0.0195 0.02 -0.033 -0.0065 0.0315 -0.033 -0.0245 0.04 -0.033 -0.002 0.021 -0.033 0.002 0.039 -0.033 0.01 0.0185 -0.033 0.0105 0.0285 -0.033 0.028 0.0125 -0.033 0.017 -0.0185 -0.033 0.0105 -0.0285 -0.033 0.028 -0.0125 -0.033 0.017 -0.02 -0.033 -0.0065 -0.04 -0.033 -0.002 -0.021 -0.033 0.002 -0.016 -0.033 -0.014 -0.023 -0.033 -0.033 -0.0315 -0.033 -0.0245 0.0375 -0.033 -0.014 0.034 -0.033 0.021 -0.0085 -0.033 -0.0195 -0.0375 -0.033 -0.014 -0.039 -0.033 0.01 -0.034 -0.033 0.021 -0.0045 -0.033 0.0205 0.012 -0.033 -0.038 0.0045 -0.033 0.0205 -0.0085 -0.041 -0.0195 0 -0.033 -0.021 -0.0085 -0.033 -0.0195 0 -0.041 -0.021 -0.016 -0.041 -0.014 -0.016 -0.033 -0.014 -0.02 -0.041 -0.0065 -0.02 -0.033 -0.0065 -0.021 -0.041 0.002 -0.021 -0.033 0.002 -0.0185 -0.041 0.0105 -0.0185 -0.033 0.0105 -0.0125 -0.041 0.017 -0.0125 -0.033 0.017 -0.0045 -0.041 0.0205 -0.0045 -0.033 0.0205 0.0045 -0.041 0.0205 0.0045 -0.033 0.0205 0.0125 -0.041 0.017 0.0125 -0.033 0.017 0.0185 -0.041 0.0105 0.0185 -0.033 0.0105 0.021 -0.041 0.002 0.021 -0.033 0.002 0.02 -0.041 -0.0065 0.02 -0.033 -0.0065 0.016 -0.041 -0.014 0.016 -0.033 -0.014 0.0085 -0.041 -0.0195 0.0085 -0.033 -0.0195 -0.0085 0.041 -0.0195 -0.016 0.033 -0.014 -0.0085 0.033 -0.0195 0.0185 0.033 0.0105 0.0125 0.041 0.017 0.0185 0.041 0.0105 -0.016 0.041 -0.014 -0.02 0.033 -0.0065 -0.02 0.041 -0.0065 -0.021 0.033 0.002 -0.021 0.041 0.002 -0.0185 0.033 0.0105 -0.0185 0.041 0.0105 -0.0125 0.033 0.017 -0.0125 0.041 0.017 -0.0045 0.033 0.0205 -0.0045 0.041 0.0205 0.0045 0.033 0.0205 0.0045 0.041 0.0205 0.0125 0.033 0.017 0.021 0.033 0.002 0.021 0.041 0.002 0.02 0.033 -0.0065 0.02 0.041 -0.0065 0.016 0.033 -0.014 0.016 0.041 -0.014 0.0085 0.033 -0.0195 0.0085 0.041 -0.0195 0 0.033 -0.021 0 0.041 -0.021 0.0105 0.028 0.039 0.015 0.026 0.043 0.015 0.026 0.039 0.01 0.028 0.043 0.005 0.0295 0.039 0.005 0.0295 0.043 0 0.03 0.039 -0.005 0.0295 0.043 -0.01 0.028 0.043 -0.005 0.0295 0.039 -0.0105 0.028 0.039 -0.015 0.026 0.043 -0.015 0.026 0.039 -0.021 0.0215 0.036 -0.023 0.0195 0.043 -0.018 0.024 0.0385 -0.0165 0.025 0.039 -0.005 -0.0295 0.043 -0.0105 -0.028 0.039 -0.005 -0.0295 0.039 -0.023 0.0195 0.035 -0.024 0.0185 0.043 -0.024 0.018 0.034 -0.027 0.013 0.043 -0.0255 0.016 0.0325 -0.0275 0.012 0.0305 -0.028 0.0105 0.043 -0.028 0.0105 0.03 -0.0295 0.005 0.028 -0.03 0 0.043 -0.029 0.0085 0.029 -0.028 -0.0105 0.03 -0.0285 -0.0085 0.029 -0.0295 -0.005 0.028 -0.03 0 0.028 -0.0285 -0.01 0.043 -0.028 -0.0105 0.043 -0.023 -0.0195 0.035 -0.025 -0.0165 0.033 -0.027 -0.0125 0.031 -0.024 -0.0185 0.043 -0.023 -0.0195 0.043 -0.0165 -0.025 0.039 -0.0195 -0.0225 0.037 -0.015 -0.026 0.043 -0.015 -0.026 0.039 0 -0.03 0.039 0.005 -0.0295 0.043 0.0105 -0.028 0.039 0.015 -0.026 0.043 0.005 -0.0295 0.039 0.021 -0.0215 0.036 0.023 -0.0195 0.043 0.018 -0.024 0.0385 0.0165 -0.025 0.039 0.015 -0.026 0.039 0.0275 -0.012 0.0305 0.028 -0.0105 0.043 0.0255 -0.016 0.0325 0.024 -0.018 0.034 0.023 -0.0195 0.035 0.0295 -0.005 0.028 0.03 0 0.043 0.029 -0.0085 0.029 0.028 -0.0105 0.03 0.028 0.0105 0.03 0.0285 0.0085 0.029 0.0295 0.005 0.028 0.03 0 0.028 0.023 0.0195 0.035 0.028 0.0105 0.043 0.025 0.0165 0.033 0.027 0.0125 0.031 0.0165 0.025 0.039 0.023 0.0195 0.043 0.0195 0.0225 0.037 0.026 0 0.036 0.0245 -0.0095 0.043 0.026 0 0.043 0.0025 -0.026 0.036 0.01 -0.024 0.043 0.0115 -0.0235 0.036 0.0025 -0.026 0.043 0.011 -0.0235 0.043 -0.007 -0.025 0.043 -0.007 -0.025 0.036 -0.016 -0.021 0.036 -0.0105 -0.024 0.043 -0.016 -0.021 0.043 -0.01 -0.024 0.043 -0.0225 -0.014 0.043 -0.0225 -0.014 0.036 -0.026 -0.005 0.036 -0.024 -0.0105 0.043 -0.026 -0.005 0.043 -0.026 0.005 0.043 -0.026 0.005 0.036 -0.0225 0.014 0.043 -0.0225 0.014 0.036 -0.016 0.021 0.043 -0.016 0.021 0.036 -0.0105 0.024 0.043 -0.007 0.025 0.036 -0.007 0.025 0.043 0.0025 0.026 0.043 0.0025 0.026 0.036 0.011 0.0235 0.043 0.0115 0.0235 0.036 0.0115 0.0235 0.043 0.0195 0.0175 0.043 0.0195 0.0175 0.036 0.024 0.01 0.043 0.0245 0.0095 0.036 0.0245 0.0095 0.043 0.024 0.011 0.043 0.024 -0.01 0.043 0.0245 -0.0095 0.036 0.024 -0.011 0.043 0.0195 -0.0175 0.036 0.0195 -0.0175 0.043 0.0115 -0.0235 0.043 0.0205 0.0195 0.043 0.024 0.011 0.043 0.028 0.0105 0.043 0.019 0.0195 0.043 0.0195 0.0175 0.043 0.0195 0.019 0.043 0.019 0.0205 0.043 0.015 0.026 0.043 0.011 0.0235 0.043 0.023 0.0195 0.043 0.0205 0.021 0.043 0.021 0.0205 0.043 0.021 0.0195 0.043 0.021 0.02 0.043 0.02 0.019 0.043 0.0205 0.019 0.043 0.005 -0.0295 0.043 0.001 -0.029 0.043 0.0005 -0.029 0.043 0.0025 0.026 0.043 -0.01 0.0265 0.043 -0.007 0.025 0.043 -0.026 0.005 0.043 -0.0265 -0.01 0.043 -0.026 -0.005 0.043 -0.0265 0.01 0.043 0.01 0.0265 0.043 0.024 0.01 0.043 0.0115 0.0235 0.043 0.019 0.02 0.043 0.01 0.028 0.043 -0.001 0.0285 0.043 -0.01 0.028 0.043 -0.015 0.026 0.043 -0.0105 0.024 0.043 -0.021 0.0195 0.043 -0.023 0.0195 0.043 -0.024 0.0185 0.043 -0.001 -0.029 0.043 -0.005 -0.0295 0.043 -0.0005 -0.029 0.043 -0.007 -0.025 0.043 0 -0.0275 0.043 0.0025 -0.026 0.043 0.001 -0.0285 0.043 0.01 -0.024 0.043 0.001 -0.028 0.043 0 -0.029 0.043 -0.001 -0.0285 0.043 -0.015 -0.026 0.043 -0.0005 -0.0275 0.043 0.0005 -0.0275 0.043 0.015 -0.026 0.043 -0.0205 -0.019 0.043 -0.0225 -0.014 0.043 -0.024 -0.0105 0.043 -0.021 -0.0195 0.043 -0.023 -0.0195 0.043 -0.021 -0.02 0.043 -0.027 0.013 0.043 -0.028 0.0105 0.043 -0.024 -0.0185 0.043 -0.0205 -0.0195 0.043 -0.016 -0.021 0.043 -0.0195 -0.019 0.043 -0.019 -0.0195 0.043 -0.0205 -0.021 0.043 -0.021 -0.0205 0.043 -0.02 -0.019 0.043 0.02 0.021 0.043 -0.019 -0.0205 0.043 -0.019 -0.02 0.043 -0.02 -0.021 0.043 -0.0195 -0.021 0.043 -0.0105 -0.024 0.043 -0.028 -0.001 0.043 -0.0285 -0.01 0.043 -0.029 0.0005 0.043 -0.029 0.001 0.043 -0.029 -0.0005 0.043 -0.03 0 0.043 -0.029 0 0.043 -0.028 0.001 0.043 -0.0275 0.0005 0.043 -0.029 -0.001 0.043 -0.027 0 0.043 -0.0275 -0.0005 0.043 -0.019 0.0205 0.043 -0.016 0.021 0.043 -0.0205 0.021 0.043 -0.02 0.021 0.043 -0.0225 0.014 0.043 -0.0195 0.019 0.043 -0.02 0.019 0.043 -0.028 -0.0105 0.043 -0.01 -0.024 0.043 0.011 -0.0235 0.043 0.019 -0.0205 0.043 0.0115 -0.0235 0.043 0.024 -0.011 0.043 0.028 -0.0105 0.043 0.024 -0.01 0.043 0.0245 -0.0095 0.043 0.029 -0.001 0.043 0.028 -0.001 0.043 0.0245 0.0095 0.043 0.028 0.001 0.043 0.0275 -0.0005 0.043 0.026 0 0.043 0.0275 0.0005 0.043 0.029 0.0005 0.043 0.03 0 0.043 0.027 0 0.043 0.029 0.001 0.043 0.029 0 0.043 0.029 -0.0005 0.043 0.0205 -0.021 0.043 0.02 -0.021 0.043 -0.021 0.0205 0.043 -0.021 0.02 0.043 -0.019 0.0195 0.043 -0.019 0.02 0.043 -0.0205 0.019 0.043 -0.0195 0.021 0.043 0.021 -0.0195 0.043 0.0205 -0.019 0.043 0.0195 -0.0175 0.043 0.019 -0.0195 0.043 0.0195 -0.019 0.043 0.023 -0.0195 0.043 0.021 -0.02 0.043 0.021 -0.0205 0.043 0.0195 -0.021 0.043 0.019 -0.02 0.043 0.02 -0.019 0.043 0.0195 -0.0205 0.043 -0.001 -0.028 0.043 -0.0195 0.0205 0.043 0.0005 0.0275 0.043 0 0.0275 0.043 -0.005 0.0295 0.043 0 0.0295 0.043 0.005 0.0295 0.043 -0.0005 0.0275 0.043 0.001 0.0285 0.043 0.001 0.028 0.043 -0.001 0.028 0.043 -0.001 0.029 0.043 -0.0005 0.029 0.043 0.0005 0.029 0.043 0.001 0.029 0.043 0.0195 0.021 0.043 0.028 -0.013 0.0285 0.0255 -0.017 0.031 0.026 -0.0175 0.0305 0.0255 -0.0165 0.032 0.0275 -0.012 0.0305 0.0255 -0.016 0.0325 0.0275 -0.0125 0.03 0.028 -0.0105 0.03 0.0275 -0.013 0.029 0.029 -0.0085 0.0285 0.029 -0.0085 0.029 0.024 -0.0185 0.033 0.024 -0.019 0.032 0.023 -0.0195 0.035 0.021 -0.022 0.035 0.024 -0.018 0.034 0.021 -0.0225 0.0345 0.0245 -0.02 0.0315 0.021 -0.0215 0.036 0.0175 -0.0245 0.037 0.0175 -0.0255 0.036 0.0215 -0.0235 0.0335 0.0285 -0.0125 0.028 0.0285 -0.0095 0.028 0.029 -0.007 0.028 0.0165 -0.025 0.039 0.0165 -0.0255 0.038 0.018 -0.024 0.0385 0.0165 -0.026 0.037 0.0165 -0.0255 0.0375 0.0165 -0.0265 0.0365 0.018 -0.0265 0.0355 0.017 -0.0275 0.036 0.0295 -0.005 0.028 0.029 -0.009 0.028 -0.0055 -0.03 0.0375 0 -0.03 0.039 -0.005 -0.0295 0.039 0 -0.0305 0.0375 0.005 -0.0295 0.039 0.0055 -0.03 0.0375 0.0105 -0.028 0.039 0.0105 -0.0285 0.0375 0.015 -0.026 0.039 0.011 -0.0295 0.0365 0.015 -0.0265 0.0375 0.0055 -0.031 0.0365 0 -0.0315 0.0365 -0.0055 -0.031 0.0365 -0.011 -0.0295 0.0365 -0.0105 -0.0285 0.0375 0.0115 -0.031 0.036 0.016 -0.0275 0.0365 0.0055 -0.0325 0.036 0 -0.033 0.036 -0.0055 -0.0325 0.036 -0.0115 -0.031 0.036 0.0165 -0.0265 0.0365 0.0165 -0.026 0.037 0.0165 -0.025 0.039 0.0165 -0.0255 0.038 0.0165 -0.0255 0.0375 -0.0165 -0.0255 0.038 -0.015 -0.026 0.039 -0.0165 -0.025 0.039 -0.0105 -0.028 0.039 -0.0165 -0.0255 0.0375 -0.0165 -0.0265 0.0365 -0.0165 -0.026 0.037 -0.017 -0.0275 0.036 0.0175 -0.028 0.036 0.0165 -0.0285 0.036 0.017 -0.0275 0.036 -0.0175 -0.028 0.036 -0.028 -0.0105 0.03 -0.027 -0.013 0.03 -0.027 -0.0125 0.031 -0.029 -0.009 0.0285 -0.0285 -0.0085 0.029 -0.028 -0.014 0.0285 -0.0255 -0.0175 0.031 -0.0275 -0.0135 0.0295 -0.025 -0.0165 0.032 -0.026 -0.018 0.0305 -0.023 -0.0205 0.033 -0.0225 -0.02 0.034 -0.025 -0.0165 0.033 -0.0235 -0.0215 0.0325 -0.0195 -0.024 0.035 -0.0195 -0.023 0.036 -0.023 -0.0195 0.035 -0.0165 -0.0255 0.0375 -0.0165 -0.0255 0.038 -0.0195 -0.0225 0.037 -0.0165 -0.025 0.039 -0.029 -0.0075 0.028 -0.029 -0.0085 0.028 -0.0285 -0.01 0.028 -0.0285 -0.0125 0.028 -0.0295 -0.005 0.028 -0.02 -0.025 0.0345 -0.0165 -0.0265 0.0365 -0.017 -0.0275 0.036 -0.0165 -0.026 0.037 0.0285 0.0085 0.029 0.029 0.0075 0.028 0.029 0.009 0.0285 0.023 0.0205 0.033 0.0195 0.023 0.036 0.0225 0.02 0.034 0.0195 0.024 0.035 0.0235 0.0215 0.0325 0.02 0.025 0.0345 0.025 0.0165 0.033 0.023 0.0195 0.035 0.0255 0.0175 0.031 0.025 0.0165 0.032 0.026 0.018 0.0305 0.027 0.0125 0.031 0.0275 0.0135 0.0295 0.027 0.013 0.03 0.028 0.014 0.0285 0.028 0.0105 0.03 0.0165 0.0265 0.0365 0.017 0.0275 0.036 0.0165 0.026 0.037 0.0165 0.0255 0.0375 0.0195 0.0225 0.037 0.0165 0.025 0.039 0.029 0.0085 0.028 0.0285 0.01 0.028 0.0285 0.0125 0.028 0.0295 0.005 0.028 0.0165 0.0255 0.038 -0.0055 0.031 0.0365 0 0.033 0.036 -0.0055 0.0325 0.036 0 0.0315 0.0365 0.0055 0.0325 0.036 0.0055 0.031 0.0365 0.0115 0.031 0.036 -0.016 0.0275 0.0365 -0.017 0.0275 0.036 -0.0165 0.0265 0.0365 -0.015 0.0265 0.0375 -0.0165 0.026 0.037 -0.0165 0.0255 0.0375 -0.015 0.026 0.039 -0.0165 0.025 0.039 0.0105 0.028 0.039 0.0165 0.0255 0.0375 0.0105 0.0285 0.0375 0.011 0.0295 0.0365 0.0165 0.0265 0.0365 0.017 0.0275 0.036 0.0175 0.028 0.036 0.0165 0.026 0.037 0.0165 0.0255 0.038 0.015 0.026 0.039 0.0165 0.025 0.039 -0.0165 0.0255 0.038 -0.011 0.0295 0.0365 -0.0115 0.031 0.036 -0.0165 0.0285 0.036 0.0055 0.03 0.0375 0 0.0305 0.0375 -0.0055 0.03 0.0375 -0.0105 0.0285 0.0375 0.005 0.0295 0.039 0 0.03 0.039 -0.005 0.0295 0.039 -0.0105 0.028 0.039 -0.0175 0.028 0.036 -0.028 0.0105 0.03 -0.029 0.0085 0.0285 -0.029 0.0085 0.029 -0.0275 0.0125 0.03 -0.0275 0.012 0.0305 -0.0255 0.0165 0.032 -0.0255 0.017 0.031 -0.028 0.013 0.0285 -0.0275 0.013 0.029 -0.0255 0.016 0.0325 -0.024 0.0185 0.033 -0.024 0.019 0.032 -0.026 0.0175 0.0305 -0.023 0.0195 0.035 -0.021 0.022 0.035 -0.024 0.018 0.034 -0.021 0.0225 0.0345 -0.0245 0.02 0.0315 -0.021 0.0215 0.036 -0.0175 0.0245 0.037 -0.018 0.024 0.0385 -0.0175 0.0255 0.036 -0.0215 0.0235 0.0335 -0.0285 0.0125 0.028 -0.0285 0.0095 0.028 -0.029 0.007 0.028 -0.0165 0.025 0.039 -0.0165 0.0255 0.038 -0.0165 0.026 0.037 -0.0165 0.0255 0.0375 -0.0165 0.0265 0.0365 -0.018 0.0265 0.0355 -0.017 0.0275 0.036 -0.029 0.009 0.028 -0.0295 0.005 0.028 0 -0.0275 0.043 -0.0005 -0.0275 0.04 0 -0.0275 0.04 -0.0005 -0.0275 0.043 -0.001 -0.028 0.04 0.0005 -0.0275 0.043 0.0005 -0.0275 0.04 0.001 -0.028 0.043 0.001 -0.028 0.04 0.001 -0.0285 0.043 0.001 -0.0285 0.04 0.001 -0.029 0.043 0.001 -0.029 0.04 0 -0.029 0.043 0.0005 -0.029 0.04 0 -0.029 0.04 -0.0005 -0.029 0.043 -0.0005 -0.029 0.04 -0.001 -0.029 0.043 -0.001 -0.029 0.04 -0.001 -0.0285 0.043 -0.001 -0.0285 0.04 0.0005 -0.029 0.043 -0.001 -0.028 0.043 0 -0.0285 0.04 -0.001 -0.0285 0.04 -0.001 -0.029 0.04 -0.001 -0.028 0.04 -0.0005 -0.0275 0.04 0 -0.0275 0.04 0.0005 -0.0275 0.04 0.001 -0.028 0.04 0.001 -0.0285 0.04 0.001 -0.029 0.04 0.0005 -0.029 0.04 0 -0.029 0.04 -0.0005 -0.029 0.04 0.019 -0.02 0.04 0.019 -0.0195 0.043 0.019 -0.02 0.043 0.019 -0.0195 0.04 0.0195 -0.019 0.043 0.0195 -0.019 0.04 0.02 -0.019 0.043 0.02 -0.019 0.04 0.0205 -0.019 0.043 0.0205 -0.019 0.04 0.021 -0.0195 0.043 0.021 -0.0195 0.04 0.021 -0.02 0.043 0.021 -0.02 0.04 0.021 -0.0205 0.043 0.021 -0.0205 0.04 0.0205 -0.021 0.043 0.0205 -0.021 0.04 0.02 -0.021 0.043 0.02 -0.021 0.04 0.0195 -0.021 0.043 0.0195 -0.0205 0.04 0.019 -0.0205 0.043 0.0195 -0.0205 0.043 0.0195 -0.021 0.04 0.019 -0.0205 0.04 0.02 -0.02 0.04 0.0195 -0.0205 0.04 0.0195 -0.021 0.04 0.019 -0.0205 0.04 0.019 -0.02 0.04 0.019 -0.0195 0.04 0.0195 -0.019 0.04 0.02 -0.019 0.04 0.0205 -0.019 0.04 0.021 -0.0195 0.04 0.021 -0.02 0.04 0.021 -0.0205 0.04 0.0205 -0.021 0.04 0.02 -0.021 0.04 -0.021 -0.02 0.04 -0.021 -0.0195 0.043 -0.021 -0.02 0.043 -0.0205 -0.0195 0.04 -0.0205 -0.019 0.043 -0.0205 -0.0195 0.043 -0.021 -0.0195 0.04 -0.0205 -0.019 0.04 -0.02 -0.019 0.043 -0.02 -0.019 0.04 -0.0195 -0.019 0.043 -0.0195 -0.019 0.04 -0.019 -0.0195 0.043 -0.019 -0.0195 0.04 -0.019 -0.02 0.043 -0.019 -0.02 0.04 -0.019 -0.0205 0.043 -0.019 -0.0205 0.04 -0.0195 -0.021 0.043 -0.0195 -0.021 0.04 -0.02 -0.021 0.043 -0.0205 -0.021 0.04 -0.021 -0.0205 0.043 -0.0205 -0.021 0.043 -0.021 -0.0205 0.04 -0.02 -0.021 0.04 -0.02 -0.02 0.04 -0.0205 -0.0195 0.04 -0.021 -0.0195 0.04 -0.021 -0.02 0.04 -0.021 -0.0205 0.04 -0.0205 -0.021 0.04 -0.02 -0.021 0.04 -0.0195 -0.021 0.04 -0.019 -0.0205 0.04 -0.019 -0.02 0.04 -0.019 -0.0195 0.04 -0.0195 -0.019 0.04 -0.02 -0.019 0.04 -0.0205 -0.019 0.04 -0.029 0.0005 0.043 -0.029 0 0.04 -0.029 0.0005 0.04 -0.029 0.001 0.043 -0.029 0.001 0.04 -0.028 0.001 0.043 -0.028 0.001 0.04 -0.0275 0.0005 0.043 -0.0275 0.0005 0.04 -0.027 0 0.043 -0.027 0 0.04 -0.0275 -0.0005 0.043 -0.0275 -0.0005 0.04 -0.028 -0.001 0.043 -0.028 -0.001 0.04 -0.029 -0.001 0.043 -0.029 -0.001 0.04 -0.029 -0.0005 0.043 -0.029 -0.0005 0.04 -0.029 0 0.043 -0.028 0 0.04 -0.028 0.001 0.04 -0.029 0.001 0.04 -0.029 0.0005 0.04 -0.029 0 0.04 -0.029 -0.0005 0.04 -0.029 -0.001 0.04 -0.028 -0.001 0.04 -0.0275 -0.0005 0.04 -0.027 0 0.04 -0.0275 0.0005 0.04 -0.021 0.02 0.04 -0.021 0.0205 0.043 -0.021 0.02 0.043 -0.021 0.0205 0.04 -0.0205 0.021 0.043 -0.0205 0.021 0.04 -0.02 0.021 0.043 -0.02 0.021 0.04 -0.0195 0.021 0.043 -0.0195 0.0205 0.04 -0.019 0.0205 0.043 -0.0195 0.0205 0.043 -0.0195 0.021 0.04 -0.019 0.0205 0.04 -0.019 0.02 0.043 -0.019 0.02 0.04 -0.019 0.0195 0.043 -0.019 0.0195 0.04 -0.0195 0.019 0.043 -0.0195 0.019 0.04 -0.02 0.019 0.043 -0.02 0.019 0.04 -0.0205 0.019 0.043 -0.0205 0.019 0.04 -0.021 0.0195 0.043 -0.021 0.0195 0.04 -0.02 0.02 0.04 -0.019 0.0205 0.04 -0.0195 0.0205 0.04 -0.02 0.021 0.04 -0.0195 0.021 0.04 -0.0205 0.021 0.04 -0.021 0.0205 0.04 -0.021 0.02 0.04 -0.021 0.0195 0.04 -0.0205 0.019 0.04 -0.02 0.019 0.04 -0.0195 0.019 0.04 -0.019 0.0195 0.04 -0.019 0.02 0.04 -0.001 0.0285 0.04 -0.001 0.029 0.043 -0.001 0.0285 0.043 -0.001 0.029 0.04 -0.0005 0.029 0.043 -0.0005 0.029 0.04 0 0.0295 0.043 0 0.0295 0.04 0.0005 0.029 0.043 0.0005 0.029 0.04 0.001 0.029 0.043 0.001 0.029 0.04 0.001 0.0285 0.043 0.001 0.0285 0.04 0.001 0.028 0.043 0.001 0.028 0.04 0.0005 0.0275 0.043 0.0005 0.0275 0.04 0 0.0275 0.043 0 0.0275 0.04 -0.0005 0.0275 0.043 -0.0005 0.0275 0.04 -0.001 0.028 0.043 -0.001 0.028 0.04 0.0005 0.029 0.04 0 0.0285 0.04 0.001 0.029 0.04 0 0.0295 0.04 -0.0005 0.029 0.04 -0.001 0.029 0.04 -0.001 0.0285 0.04 -0.001 0.028 0.04 -0.0005 0.0275 0.04 0 0.0275 0.04 0.0005 0.0275 0.04 0.001 0.028 0.04 0.001 0.0285 0.04 0.0205 0.019 0.043 0.0205 0.0195 0.04 0.0205 0.019 0.04 0.02 0.019 0.043 0.02 0.019 0.04 0.0195 0.019 0.043 0.0195 0.019 0.04 0.019 0.0195 0.043 0.019 0.0195 0.04 0.019 0.02 0.043 0.019 0.02 0.04 0.021 0.0195 0.04 0.0205 0.0195 0.043 0.021 0.0195 0.043 0.021 0.02 0.04 0.021 0.02 0.043 0.021 0.0205 0.04 0.021 0.0205 0.043 0.0205 0.021 0.04 0.0205 0.021 0.043 0.02 0.021 0.04 0.02 0.021 0.043 0.0195 0.021 0.04 0.0195 0.021 0.043 0.019 0.0205 0.04 0.019 0.0205 0.043 0.021 0.02 0.04 0.02 0.02 0.04 0.021 0.0195 0.04 0.021 0.0205 0.04 0.0205 0.021 0.04 0.02 0.021 0.04 0.0195 0.021 0.04 0.019 0.0205 0.04 0.019 0.02 0.04 0.019 0.0195 0.04 0.0195 0.019 0.04 0.02 0.019 0.04 0.0205 0.019 0.04 0.0205 0.0195 0.04 0.028 0.001 0.043 0.0275 0.0005 0.04 0.028 0.001 0.04 0.029 0.001 0.043 0.029 0.001 0.04 0.029 0.0005 0.043 0.029 0.0005 0.04 0.029 0 0.043 0.029 0 0.04 0.029 -0.0005 0.043 0.029 -0.0005 0.04 0.029 -0.001 0.043 0.029 -0.001 0.04 0.0275 0.0005 0.043 0.027 0 0.04 0.028 -0.001 0.043 0.028 -0.001 0.04 0.0275 -0.0005 0.043 0.0275 -0.0005 0.04 0.027 0 0.043 0.028 0 0.04 0.029 0 0.04 0.029 0.0005 0.04 0.029 0.001 0.04 0.029 -0.0005 0.04 0.029 -0.001 0.04 0.028 0.001 0.04 0.0275 0.0005 0.04 0.027 0 0.04 0.0275 -0.0005 0.04 0.028 -0.001 0.04</float_array><technique_common><accessor source="#pa" count="1198" stride="3"><param name="X" type="float"/><param name="Y" type="float"/><param name="Z" type="float"/></accessor></technique_common></source>
        <source id="n"><float_array id="na" count="3594">0 0 1 0 0 1 0 0 1 0 0 1 0 0 1 0 0 1 0 0 1 0 0 1 0 0 1 0 0 1 0 0 1 0 0 1 0 0 1 0 0 1 0 0 1 0 0 1 0 0 1 0 0 1 0 0 1 0 0 1 0 0 1 0 0 1 0 0 1 0 0 1 0 0 1 0 0 1 0 0 1 0 0 1 0 0 1 0 0 1 0 0 1 0 0 1 0 0 1 -0.52 0 -0.86 -0.33 0 -0.94 -0.25 0 -0.97 -0.06 0 -1 0.06 0 -1 0.25 0 -0.97 0.33 0 -0.94 0.52 0 -0.86 0.62 0 -0.79 0.77 0 -0.64 0.82 0 -0.57 0.92 0 -0.4 0.95 0 -0.3 0.99 0 -0.11 1 0 -0.01 0.98 0 0.2 0.95 0 0.31 -0.77 0 -0.64 -0.62 0 -0.79 0.73 -0.02 0.69 0.65 -0.01 0.76 0.61 -0.02 0.79 0.71 0 0.71 0.71 0 0.71 0.82 -0.02 0.57 0.88 0 0.47 0.56 -0.01 0.83 0.55 -0.02 0.83 0.57 -0.02 0.82 0.34 0.19 0.92 0.24 0.24 0.94 0.58 0 0.82 -0.92 0 -0.4 -0.82 0 -0.57 -0.99 0 -0.11 -0.95 0 -0.3 -0.98 0 0.2 -1 0 -0.01 -0.85 -0.02 0.53 -0.95 0 0.31 -0.73 -0.02 0.69 -0.71 0 0.71 -0.71 0 0.71 -0.66 -0.01 0.75 -0.62 -0.03 0.79 -0.55 -0.02 0.83 -0.31 0.21 0.93 -0.57 -0.03 0.82 -0.58 0 0.82 -0.25 0.25 0.93 -0.86 0 0.5 0 1 0 0 1 0 0 1 0 0 1 0 0 1 0 0 1 0 0 1 0 0 1 0 0 1 0 0 1 0 0 1 0 0 1 0 0 1 0 0 1 0 0 1 0 0 1 0 0 1 0 0 1 0 0 1 0 0 1 0 0 1 0 0 1 0 0 1 0 0 1 0 0 1 0 0 1 0 0 1 0 0 1 0 0 1 0 0 1 0 0 1 0 0 1 0 0 1 0 0 1 0 0 -1 0 0 -1 0 0 -1 0 0 -1 0 0 -1 0 0 -1 0 0 -1 0 0 -1 0 0 -1 0 0 -1 0 0 -1 0 0 -1 0 0 -1 0 0 -1 0 0 -1 0 0 -1 0 0 -1 0 0 -1 0 0 -1 0 0 -1 0 0 -1 0 0 -1 0 0 -1 0 0 -1 0 0 -1 0 0 -1 0 0 -1 0 0 -1 0 0 -1 0 0 -1 0 0 -1 0 0 -1 0 0 -1 0 0 -1 0 0 0 1 0 0 1 0 0 1 0 0 1 0 0 1 0 0 1 0 0 1 0 0 1 0 0 1 0 0 1 0 0 1 0 0 1 0 0 1 0 0 1 0 0 1 0 0 1 0 0 1 0 0 1 0 0 1 0 0 1 0.94 -0.33 0 1 -0.06 0 0.88 -0.47 0 0.72 -0.7 0 0.6 -0.8 0 0.36 -0.93 0 0.24 -0.97 0 -0.02 -1 0 -0.15 -0.99 0 -0.42 -0.91 0 -0.56 -0.83 0 -0.77 -0.64 0 -0.85 -0.52 0 -0.95 -0.3 0 -0.95 -0.3 0 -0.95 0.3 0 -1 0.04 0 -1 -0.04 0 -0.85 0.52 0 -0.77 0.64 0 -0.56 0.83 0 -0.42 0.91 0 -0.15 0.99 0 -0.02 1 0 0.88 0.47 0 0.72 0.7 0 0.94 0.33 0 1 0.06 0 0.6 0.8 0 0.36 0.93 0 0.24 0.97 0 -0.95 0.3 0 0 0 -1 0 0 -1 0 0 -1 0 0 -1 0 0 -1 0 0 -1 0 0 -1 0 0 -1 0 0 -1 0 0 -1 0 0 -1 0 0 -1 0 0 -1 0 0 -1 0 0 -1 0 0 -1 0 0 -1 0 0 -1 0 0 -1 0 0 -1 0 0 -1 0 0 -1 0 0 -1 0 0 -1 0 0 -1 0 0 -1 0 0 -1 0 0 -1 0 0 -1 0 0 -1 0 0 -1 0 0 -1 0 0 -1 0 0 -1 0 0 -1 0 0 -1 0 0 -1 0 0 -1 0 0 -1 0 0 -1 0 0 -1 0 0 -1 -0.56 0.01 0.83 -0.61 0.02 0.79 -0.55 0.02 0.83 -0.57 0.02 0.82 -0.65 0.01 0.76 -0.34 -0.19 0.92 -0.24 -0.24 0.94 0.31 -0.21 0.93 0.55 0.02 0.83 0.25 -0.25 0.93 0.62 0.03 0.79 0.58 0 0.82 0.57 0.03 0.82 0.66 0.01 0.75 0.73 0.02 0.69 0.85 0.02 0.53 0.71 0 0.71 0.71 0 0.71 0.95 0 0.31 0.86 0 0.5 1 0 -0.01 0.98 0 0.2 0.95 0 -0.3 0.99 0 -0.11 0.82 0 -0.57 0.92 0 -0.4 0.62 0 -0.79 0.77 0 -0.64 0.33 0 -0.94 0.52 0 -0.86 0.06 0 -1 0.25 0 -0.97 -0.25 0 -0.97 -0.06 0 -1 -0.52 0 -0.86 -0.33 0 -0.94 -0.77 0 -0.64 -0.62 0 -0.79 -0.92 0 -0.4 -0.82 0 -0.57 -0.99 0 -0.11 -0.95 0 -0.3 -0.98 0 0.2 -1 0 -0.01 -0.88 0 0.47 -0.95 0 0.31 -0.73 0.02 0.69 -0.71 0 0.71 -0.71 0 0.71 -0.82 0.02 0.57 -0.58 0 0.82 0 -1 0 0 -1 0 0 -1 0 0 -1 0 0 -1 0 0 -1 0 0 -1 0 0 -1 0 0 -1 0 0 -1 0 0 -1 0 0 -1 0 0 -1 0 0 -1 0 0 -1 0 0 -1 0 0 -1 0 0 -1 0 0 -1 0 0 -1 0 0 -1 0 0 -1 0 0 -1 0 0 -1 0 0 -1 0 0 -1 0 0 -1 0 0 -1 0 0 -1 0 0 -1 0 0 -1 0 0 -1 0 0 1 0 0 1 0 0 1 0 0 1 0 0 1 0 0 1 0 0 1 0 0 1 0 0 1 0 0 1 0 0 1 0 0 1 0 0 1 0 0 1 0 0 1 0 0 1 0 0 1 0 0 1 0 0 1 0 0 1 0 0 1 0 0 1 0 0 1 0 0 1 0 0 1 0 0 1 0 0 1 0 0 1 0 0 1 0 0 1 0 0 1 0 0 1 0 0.33 0 0.94 0.06 0 1 0.47 0 0.88 -0.06 0 1 0.7 0 0.72 0.8 0 0.6 0.93 0 0.36 0.97 0 0.24 1 0 -0.02 0.99 0 -0.15 0.91 0 -0.42 0.83 0 -0.56 0.64 0 -0.77 0.52 0 -0.85 0.27 0 -0.96 0.13 0 -0.99 -0.13 0 -0.99 -0.27 0 -0.96 -0.52 0 -0.85 -0.64 0 -0.77 -0.83 0 -0.56 -0.91 0 -0.42 -0.99 0 -0.15 -1 0 -0.02 -0.97 0 0.24 -0.93 0 0.36 -0.8 0 0.6 -0.7 0 0.72 -0.47 0 0.88 -0.33 0 0.94 0.47 0 0.88 0.7 0 0.72 0.33 0 0.94 -0.83 0 -0.56 -0.64 0 -0.77 -0.91 0 -0.42 0.8 0 0.6 0.93 0 0.36 0.97 0 0.24 1 0 -0.02 0.99 0 -0.15 0.91 0 -0.42 0.83 0 -0.56 0.64 0 -0.77 0.52 0 -0.85 0.27 0 -0.96 0.13 0 -0.99 -0.13 0 -0.99 -0.27 0 -0.96 -0.52 0 -0.85 -0.99 0 -0.15 -1 0 -0.02 -0.97 0 0.24 -0.93 0 0.36 -0.8 0 0.6 -0.7 0 0.72 -0.47 0 0.88 -0.33 0 0.94 -0.06 0 1 0.06 0 1 0.34 0.94 0.03 0.52 0.86 0.03 0.45 0.89 0 0.31 0.95 0.03 0.22 0.98 0.01 0.1 0.99 0.06 0 1 0.06 -0.1 0.99 0.06 -0.31 0.95 0.03 -0.22 0.98 0.01 -0.34 0.94 0.03 -0.52 0.86 0.03 -0.45 0.89 0 -0.68 0.74 0.02 -0.66 0.75 0.04 -0.64 0.77 0.06 -0.61 0.79 0.06 -0.18 -0.98 0.07 -0.33 -0.94 0.05 -0.19 -0.98 0 -0.75 0.67 -0.01 -0.85 0.53 -0.02 -0.85 0.52 0 -0.88 0.47 0 -0.87 0.5 0.02 -0.92 0.4 0 -0.97 0.23 0 -0.97 0.24 0.03 -0.99 0.12 0.01 -1 0.01 0.01 -0.97 0.24 0.07 -0.97 -0.23 -0.01 -0.97 -0.25 0.05 -0.98 -0.17 0.02 -1 0 0 -0.98 -0.19 -0.03 -0.88 -0.48 0 -0.83 -0.56 -0.01 -0.87 -0.48 0.03 -0.89 -0.45 0 -0.87 -0.49 -0.05 -0.65 -0.76 0.02 -0.63 -0.78 0.02 -0.65 -0.76 0 -0.48 -0.88 0.05 -0.45 -0.89 0 0 -1 0.06 0.18 -0.98 0.07 0.33 -0.94 0.05 0.48 -0.88 0.05 0.19 -0.98 0 0.68 -0.74 0.02 0.76 -0.65 0.02 0.64 -0.77 0.06 0.61 -0.79 0.06 0.45 -0.89 0 0.91 -0.41 0.01 0.93 -0.37 0.02 0.87 -0.48 0.05 0.84 -0.54 0.08 0.84 -0.53 0.01 0.99 -0.12 0.01 1 0 0.02 0.97 -0.24 0.07 0.97 -0.24 0.03 0.97 0.23 0.01 0.97 0.25 0.05 0.98 0.17 0.02 1 0 0 0.83 0.56 0.02 0.93 0.37 0.01 0.87 0.48 0.03 0.89 0.45 0 0.63 0.78 0.02 0.75 0.66 0.01 0.65 0.76 0 -1 0.05 0 -0.98 0.18 0 -1 -0.05 0 -0.07 1 0 -0.27 0.96 0 -0.44 0.9 0 -0.06 1 0 -0.32 0.95 -0.02 0.14 0.99 0 0.26 0.96 0.03 0.61 0.79 0.02 0.42 0.91 0.04 0.64 0.77 0 0.27 0.96 -0.02 0.77 0.64 0 0.86 0.51 0.01 0.99 0.16 0.01 0.93 0.36 0.01 0.99 0.13 0 0.99 -0.12 0 0.97 -0.24 0 0.88 -0.48 0 0.81 -0.58 0 0.68 -0.74 0 0.55 -0.83 0.03 0.41 -0.91 0.04 0.22 -0.98 0.02 0.15 -0.99 0 -0.02 -1 0 -0.15 -0.99 -0.01 -0.27 -0.96 -0.01 -0.49 -0.87 -0.01 -0.58 -0.82 0 -0.67 -0.74 0 -0.76 -0.65 0.02 -0.95 -0.32 -0.05 -0.96 -0.29 0.01 -0.98 -0.2 0 -0.85 -0.52 0.02 -0.95 0.32 -0.05 -0.94 0.35 0.02 -0.85 0.52 0.02 -0.72 0.69 0.01 -0.71 0.71 0 -0.59 0.81 0 0 0 1 0 0 1 0 0 1 0 0 1 0 0 1 0 0 1 0 0 1 0 0 1 0 0 1 0 0 1 0 0 1 0 0 1 0 0 1 0 0 1 0 0 1 0 0 1 0 0 1 0 0 1 0 0 1 0 0 1 0 0 1 0 0 1 0 0 1 0 0 1 0 0 1 0 0 1 0 0 1 0 0 1 0 0 1 0 0 1 0 0 1 0 0 1 0 0 1 0 0 1 0 0 1 0 0 1 0 0 1 0 0 1 0 0 1 0 0 1 0 0 1 0 0 1 0 0 1 0 0 1 0 0 1 0 0 1 0 0 1 0 0 1 0 0 1 0 0 1 0 0 1 0 0 1 0 0 1 0 0 1 0 0 1 0 0 1 0 0 1 0 0 1 0 0 1 0 0 1 0 0 1 0 0 1 0 0 1 0 0 1 0 0 1 0 0 1 0 0 1 0 0 1 0 0 1 0 0 1 0 0 1 0 0 1 0 0 1 0 0 1 0 0 1 0 0 1 0 0 1 0 0 1 0 0 1 0 0 1 0 0 1 0 0 1 0 0 1 0 0 1 0 0 1 0 0 1 0 0 1 0 0 1 0 0 1 0 0 1 0 0 1 0 0 1 0 0 1 0 0 1 0 0 1 0 0 1 0 0 1 0 0 1 0 0 1 0 0 1 0 0 1 0 0 1 0 0 1 0 0 1 0 0 1 0 0 1 0 0 1 0 0 1 0 0 1 0 0 1 0 0 1 0 0 1 0 0 1 0 0 1 0 0 1 0 0 1 0 0 1 0 0 1 0 0 1 0 0 1 0 0 1 0 0 1 0 0 1 0 0 1 0 0 1 0 0 1 0 0 1 0 0 1 0 0 1 0 0 1 0 0 1 0 0 1 0 0 1 0 0 1 0 0 1 0 0 1 0 0 1 0 0 1 0 0 1 0 0 1 0 0 1 0 0 1 0 0 1 0 0 1 0 0 1 0 0 1 0 0 1 0 0 1 0 0 1 0 0 1 0 0 1 0 0 1 0.71 0 0.71 0.86 -0.26 0.44 0.67 -0.05 0.74 0.88 -0.39 0.26 0.91 -0.29 0.29 0.87 -0.39 0.3 0.93 -0.32 0.16 0.93 -0.28 0.23 0.89 -0.19 0.42 0.95 -0.3 0.08 0.95 -0.25 -0.19 0.82 -0.51 0.24 0.79 -0.3 0.54 0.79 -0.58 0.17 0.73 -0.58 0.36 0.86 -0.45 0.23 0.73 -0.34 0.59 0.69 -0.14 0.71 0.69 -0.7 0.19 0.7 -0.66 0.28 0.65 -0.38 0.66 0.65 -0.27 0.71 0.71 0 0.71 0.93 -0.24 0.28 0.97 -0.13 -0.19 0.6 -0.72 0.36 0.68 -0.72 0.14 0.66 -0.74 0.08 0.73 -0.49 0.49 0.75 -0.6 0.3 0.6 -0.22 0.77 0.56 -0.13 0.82 0.55 -0.14 0.82 0.91 -0.23 -0.34 0.96 -0.19 0.19 -0.15 -0.83 0.54 -0.03 -0.95 0.33 -0.21 -0.92 0.34 0.01 -0.85 0.52 0.14 -0.93 0.35 0.16 -0.84 0.52 0.3 -0.9 0.33 0.29 -0.8 0.53 0.41 -0.86 0.3 0.16 -0.45 0.88 0.36 -0.7 0.61 0.1 -0.5 0.86 0.01 -0.51 0.86 -0.09 -0.5 0.86 -0.19 -0.47 0.86 -0.33 -0.81 0.48 0.12 -0.31 0.94 0.22 -0.38 0.9 0.06 -0.31 0.95 0.01 -0.32 0.95 -0.05 -0.32 0.95 -0.1 -0.25 0.96 0.49 -0.37 0.79 0.43 -0.64 0.64 0.51 -0.77 0.38 0.5 -0.82 0.27 0.51 -0.77 0.38 -0.47 -0.84 0.28 -0.43 -0.88 0.22 -0.51 -0.77 0.38 -0.32 -0.9 0.3 -0.42 -0.86 0.3 -0.28 -0.53 0.8 -0.33 -0.67 0.67 -0.14 -0.25 0.96 0.27 -0.14 0.95 0.18 -0.37 0.91 0.45 0 0.89 0 0 1 -0.91 -0.26 0.32 -0.9 -0.28 0.35 -0.9 -0.41 0.12 -0.94 -0.26 0.23 -0.88 0 0.48 -0.8 -0.13 0.59 -0.78 -0.18 0.61 -0.8 -0.1 0.59 -0.86 -0.31 0.4 -0.68 -0.04 0.73 -0.71 -0.25 0.65 -0.82 -0.48 0.31 -0.84 -0.55 -0.04 -0.6 -0.09 0.79 -0.65 -0.29 0.7 -0.73 -0.57 0.38 -0.75 -0.66 0.08 -0.7 -0.64 0.32 -0.71 -0.65 0.26 -0.72 -0.62 0.31 -0.72 -0.62 0.31 -0.93 -0.06 0.35 -0.96 -0.19 -0.19 -0.91 -0.15 0.39 -0.84 -0.04 0.54 -0.94 -0.19 0.28 -0.55 -0.13 0.82 -0.63 -0.33 0.71 -0.54 -0.15 0.83 -0.69 -0.51 0.51 0.88 0 0.48 0.93 0.06 0.35 0.94 0.26 0.23 0.71 0.25 0.65 0.73 0.56 0.4 0.82 0.48 0.31 0.65 0.29 0.7 0.6 0.09 0.79 0.55 0.13 0.82 0.84 0.55 -0.04 0.75 0.66 0.08 0.78 0.18 0.61 0.86 0.31 0.4 0.68 0.04 0.73 0.9 0.41 0.12 0.8 0.1 0.59 0.9 0.28 0.35 0.8 0.13 0.59 0.91 0.26 0.32 0.63 0.33 0.71 0.54 0.15 0.83 0.69 0.51 0.51 0.71 0.63 0.32 0.71 0.64 0.28 0.72 0.62 0.31 0.96 0.19 -0.19 0.91 0.15 0.39 0.84 0.04 0.54 0.94 0.19 0.28 0.73 0.65 0.22 -0.1 0.5 0.86 -0.01 0.32 0.95 -0.06 0.31 0.95 -0.01 0.51 0.86 0.05 0.32 0.95 0.09 0.5 0.86 0.1 0.25 0.96 -0.22 0.38 0.9 -0.45 0 0.89 -0.49 0.37 0.79 -0.36 0.7 0.61 -0.43 0.64 0.64 -0.51 0.77 0.38 -0.41 0.86 0.3 -0.51 0.77 0.38 0.36 0.9 0.24 0.41 0.85 0.34 0.31 0.79 0.53 0.19 0.47 0.86 0.28 0.53 0.8 0.14 0.25 0.96 0 0 1 0.33 0.67 0.67 0.42 0.89 0.15 0.44 0.87 0.22 0.51 0.77 0.38 -0.5 0.82 0.27 -0.16 0.45 0.88 -0.12 0.31 0.94 -0.18 0.37 0.91 0.15 0.83 0.54 -0.01 0.85 0.52 -0.16 0.84 0.52 -0.29 0.8 0.53 0.21 0.92 0.34 0.03 0.95 0.33 -0.14 0.93 0.35 -0.3 0.9 0.33 -0.27 0.14 0.95 -0.93 0.28 0.23 -0.95 0.3 0.08 -0.95 0.25 -0.19 -0.93 0.32 0.16 -0.91 0.29 0.29 -0.88 0.39 0.26 -0.86 0.26 0.44 -0.71 0 0.71 -0.89 0.19 0.42 -0.87 0.39 0.3 -0.82 0.51 0.24 -0.79 0.3 0.54 -0.67 0.05 0.74 -0.79 0.58 0.17 -0.73 0.58 0.36 -0.86 0.45 0.23 -0.73 0.34 0.59 -0.69 0.14 0.71 -0.69 0.7 0.19 -0.7 0.66 0.28 -0.66 0.74 0.08 -0.65 0.38 0.66 -0.65 0.27 0.71 -0.71 0 0.71 -0.93 0.24 0.28 -0.97 0.13 -0.19 -0.6 0.72 0.36 -0.68 0.72 0.14 -0.73 0.49 0.49 -0.75 0.6 0.3 -0.6 0.22 0.77 -0.56 0.13 0.82 -0.55 0.14 0.82 -0.96 0.19 0.19 -0.91 0.23 -0.34 0 -1 0 0.32 -0.95 0 0 -1 0 0.55 -0.83 0 0.83 -0.55 0 -0.32 -0.95 0 -0.55 -0.83 0 -0.83 -0.55 0 -0.95 -0.32 0 -1 0 0 -1 0 0 -0.89 0.45 0 -0.45 0.89 0 0 1 0 0 1 0 0 1 0 0 1 0 0 1 0 0.45 0.89 0 0.89 0.45 0 1 0 0 1 0 0 0 1 0 0.95 -0.32 0 0 0 1 0 0 1 0 0 1 0 0 1 0 0 1 0 0 1 0 0 1 0 0 1 0 0 1 0 0 1 0 0 1 0 0 1 0 0 1 1 0 0 0.95 -0.32 0 1 0 0 0.83 -0.55 0 0.55 -0.83 0 0.32 -0.95 0 0 -1 0 0 -1 0 -0.32 -0.95 0 -0.55 -0.83 0 -0.83 -0.55 0 -0.95 -0.32 0 -1 0 0 -1 0 0 -0.95 0.32 0 -0.83 0.55 0 -0.55 0.83 0 -0.32 0.95 0 0 1 0 0 1 0 0.45 0.89 0 0.45 0.89 0 0.45 0.89 0 0.89 0.45 0 0.89 0.45 0 0.89 0.45 0 0 0 1 0 0 1 0 0 1 0 0 1 0 0 1 0 0 1 0 0 1 0 0 1 0 0 1 0 0 1 0 0 1 0 0 1 0 0 1 0 0 1 1 0 0 0.89 -0.45 0 1 0 0 0.89 -0.45 0 0.89 -0.45 0 0.45 -0.89 0 0.45 -0.89 0 0.45 -0.89 0 0 -1 0 0 -1 0 -0.32 -0.95 0 -0.55 -0.83 0 -0.83 -0.55 0 -0.95 -0.32 0 -1 0 0 -1 0 0 -0.95 0.32 0 -0.83 0.55 0 -0.55 0.83 0 -0.32 0.95 0 0 1 0 0.55 0.83 0 0.83 0.55 0 0.32 0.95 0 0.95 0.32 0 0 1 0 0 0 1 0 0 1 0 0 1 0 0 1 0 0 1 0 0 1 0 0 1 0 0 1 0 0 1 0 0 1 0 0 1 0 0 1 0 0 1 0 0 1 1 0 0 1 0 0 1 0 0 0.71 -0.71 0 0.24 -0.97 0 -0.2 -0.98 0 -0.45 -0.89 0 -0.71 -0.71 0 -0.71 -0.71 0 -0.95 -0.32 0 -0.95 0.32 0 -0.71 0.71 0 -0.71 0.71 0 -0.45 0.89 0 -0.2 0.98 0 0.24 0.97 0 0.71 0.71 0 1 0 0 1 0 0 1 0 0 0 0 1 0 0 1 0 0 1 0 0 1 0 0 1 0 0 1 0 0 1 0 0 1 0 0 1 0 0 1 0 0 1 1 0 0 0.95 -0.32 0 1 0 0 0.83 -0.55 0 0.55 -0.83 0 0.32 -0.95 0 0 -1 0 0 -1 0 -0.45 -0.89 0 -0.45 -0.89 0 -0.45 -0.89 0 -0.89 -0.45 0 -0.89 -0.45 0 -0.89 -0.45 0 -1 0 0 -1 0 0 -0.95 0.32 0 -0.83 0.55 0 -0.55 0.83 0 -0.32 0.95 0 0 1 0 0 1 0 0.32 0.95 0 0.55 0.83 0 0.83 0.55 0 0.95 0.32 0 0 0 1 0 0 1 0 0 1 0 0 1 0 0 1 0 0 1 0 0 1 0 0 1 0 0 1 0 0 1 0 0 1 0 0 1 0 0 1 0 0 1 1 0 0 0.89 -0.45 0 1 0 0 0.45 -0.89 0 0.32 -0.95 0 0.55 -0.83 0 0.32 -0.95 0 -0.32 -0.95 0 -0.55 -0.83 0 -0.32 -0.95 0 -0.45 -0.89 0 -0.89 -0.45 0 -1 0 0 -1 0 0 -0.95 0.32 0 -0.83 0.55 0 -0.55 0.83 0 -0.32 0.95 0 0 1 0 0 1 0 0.32 0.95 0 0.55 0.83 0 0.83 0.55 0 0.95 0.32 0 0 0 1 0 0 1 0 0 1 0 0 1 0 0 1 0 0 1 0 0 1 0 0 1 0 0 1 0 0 1 0 0 1 0 0 1 0 0 1 -0.89 0.45 0 -0.89 0.45 0 -0.45 0.89 0 0 1 0 0 1 0 0.32 0.95 0 0.55 0.83 0 0.83 0.55 0 0.95 0.32 0 1 0 0 1 0 0 -0.45 0.89 0 -0.45 0.89 0 -0.89 0.45 0 -1 0 0 -1 0 0 -0.95 -0.32 0 -0.83 -0.55 0 -0.55 -0.83 0 -0.32 -0.95 0 0 -1 0 0 -1 0 0.32 -0.95 0 0.55 -0.83 0 0.83 -0.55 0 0.95 -0.32 0 0 0 1 0 0 1 0 0 1 0 0 1 0 0 1 0 0 1 0 0 1 0 0 1 0 0 1 0 0 1 0 0 1 0 0 1 0 0 1 0 0 1 0.45 -0.89 0 0.71 -0.71 0 0.2 -0.98 0 -0.24 -0.97 0 -0.71 -0.71 0 -1 0 0 -1 0 0 -1 0 0 -1 0 0 -1 0 0 -1 0 0 -0.71 0.71 0 -0.24 0.97 0 0.71 -0.71 0 0.95 -0.32 0 0.2 0.98 0 0.45 0.89 0 0.71 0.71 0 0.71 0.71 0 0.95 0.32 0 0 0 1 0 0 1 0 0 1 0 0 1 0 0 1 0 0 1 0 0 1 0 0 1 0 0 1 0 0 1 0 0 1</float_array><technique_common><accessor source="#na" count="1198" stride="3"><param name="X" type="float"/><param name="Y" type="float"/><param name="Z" type="float"/></accessor></technique_common></source>
        <vertices id="v"><input semantic="POSITION" source="#p"/><input semantic="NORMAL" source="#n"/></vertices>
        <triangles material="m0" count="1252"><input semantic="VERTEX" source="#v" offset="0"/><p>0 1 2 3 4 2 5 6 7 8 9 10 11 12 13 9 8 3 10 14 5 15 6 16 17 18 19 14 10 9 6 5 14 6 15 7 20 16 21 13 18 22 23 24 1 16 20 15 25 26 11 18 13 12 18 17 22 27 19 24 0 2 4 28 29 30 31 29 32 29 31 30 21 32 20 26 25 28 29 28 25 12 11 26 19 27 17 24 23 27 1 0 23 32 21 31 4 3 8 33 34 35 35 36 37 37 38 39 39 40 41 41 42 43 43 44 45 45 46 47 47 48 49 50 51 33 52 53 54 55 52 56 52 57 58 57 52 54 48 47 46 59 54 60 60 54 61 61 54 53 62 59 60 59 62 63 54 59 64 53 52 55 58 49 48 65 66 50 67 68 65 69 70 67 71 72 69 73 74 75 76 73 77 73 76 74 73 71 77 78 79 80 77 80 76 77 78 80 78 77 81 79 78 82 46 45 44 44 43 42 42 41 40 40 39 38 38 37 36 36 35 34 34 33 51 51 50 66 66 65 68 68 67 70 70 69 72 72 71 83 71 73 83 49 58 57 84 85 86 87 88 89 90 91 92 93 94 95 96 97 98 86 99 100 101 102 103 104 105 106 107 95 108 94 109 110 109 111 110 90 92 112 87 112 92 85 84 113 99 86 85 114 115 101 102 101 115 116 102 117 105 104 96 107 106 105 109 94 93 91 90 111 99 114 100 102 116 103 117 97 116 114 99 115 88 87 113 111 109 91 97 96 104 113 84 88 95 107 93 112 87 89 97 117 98 106 107 108 118 119 120 121 122 123 124 125 126 127 128 129 130 131 132 131 133 132 134 118 133 135 124 128 136 130 137 131 130 136 124 135 138 128 127 135 129 139 127 139 140 141 140 139 142 141 143 144 143 137 144 125 124 138 122 126 125 145 146 147 133 131 134 122 121 126 121 148 145 146 145 148 137 143 136 147 146 149 143 141 140 148 121 123 120 150 151 118 134 119 149 150 147 150 120 119 139 129 142 150 149 151 152 153 154 155 156 157 156 155 158 159 155 157 160 152 155 160 155 159 152 154 161 152 160 153 162 163 164 165 166 167 168 166 169 162 165 170 166 168 171 166 171 167 162 170 163 165 162 166 172 173 174 175 174 176 177 176 178 179 178 180 181 180 182 183 182 184 185 184 186 187 188 189 190 187 191 192 191 193 194 193 195 196 197 198 199 198 173 198 199 196 197 196 200 201 200 202 195 202 194 193 194 192 191 192 190 187 190 203 185 189 188 189 185 186 188 187 203 184 185 183 182 183 181 180 181 179 178 179 177 200 201 197 176 177 175 174 175 172 173 172 199 202 195 201 204 205 206 207 208 209 210 211 207 212 213 214 215 216 217 218 219 220 206 205 221 207 209 222 211 223 224 225 223 214 226 214 213 219 221 205 215 227 216 228 229 230 207 222 231 223 225 224 216 232 217 207 231 210 214 226 225 211 210 223 233 234 235 227 215 236 237 213 212 208 228 230 238 205 204 221 219 218 239 233 235 216 237 232 208 207 228 205 229 228 234 218 220 239 240 233 237 216 213 229 205 238 239 241 240 242 227 236 243 241 239 227 242 243 244 243 245 241 243 244 218 234 233 243 242 245 246 247 248 248 247 249 249 247 250 251 246 248 246 251 252 253 254 255 254 256 257 256 254 258 256 258 259 260 261 256 260 259 262 259 260 256 260 262 263 264 261 265 266 267 264 268 269 266 270 271 268 272 273 270 274 275 272 276 277 274 278 279 276 280 281 278 282 283 280 284 285 282 286 287 284 288 289 286 290 291 288 292 250 247 293 292 294 292 295 290 295 292 247 250 292 293 291 290 295 289 288 291 287 286 289 285 284 287 283 282 285 281 280 283 279 278 281 277 276 279 275 274 277 273 272 275 271 270 273 269 268 271 267 266 269 261 264 267 261 260 265 247 246 296 254 253 258 297 298 299 300 301 302 303 304 305 306 307 308 309 310 311 312 313 298 307 306 314 310 308 307 309 315 316 302 317 300 303 306 304 315 309 311 316 318 319 310 309 308 318 316 315 319 318 320 321 320 322 320 321 319 323 321 322 324 305 325 301 313 326 313 312 326 297 299 323 321 323 299 306 303 314 305 324 303 327 324 325 313 301 300 298 297 312 324 317 328 317 302 328 317 324 327 329 330 331 332 333 334 335 336 332 337 338 339 340 339 338 341 340 342 343 344 345 346 347 348 349 350 351 335 337 352 340 341 353 350 354 329 346 351 355 347 346 355 343 356 357 345 344 358 339 340 353 336 335 352 333 332 336 330 359 331 350 349 354 348 347 356 344 343 357 358 341 360 337 335 338 359 330 334 351 346 349 341 358 344 334 333 359 356 343 348 330 329 354 341 342 360 361 362 363 362 361 364 363 365 361 366 367 365 368 369 367 370 371 369 372 373 371 374 375 373 376 377 375 378 379 377 380 381 379 382 383 381 384 385 383 386 387 385 388 389 387 390 364 389 364 390 362 389 388 390 387 386 388 385 384 386 383 382 384 381 380 382 379 378 380 377 376 378 375 374 376 373 372 374 371 370 372 369 368 370 367 366 368 365 363 366 391 392 393 394 395 396 397 398 392 399 400 398 401 402 400 403 404 402 405 406 404 407 408 406 409 410 408 395 394 410 396 411 394 412 413 411 414 415 413 416 417 415 418 419 417 419 418 420 417 416 418 415 414 416 413 412 414 411 396 412 410 409 395 408 407 409 406 405 407 404 403 405 402 401 403 400 399 401 398 397 399 392 391 397 393 420 391 420 393 419 421 422 423 424 425 426 425 424 421 427 428 426 427 426 425 429 430 431 431 432 429 432 431 433 434 435 436 437 435 432 435 437 436 438 439 440 437 432 433 441 442 435 443 444 442 444 443 445 444 445 446 446 447 444 447 446 448 449 450 451 448 450 447 450 448 451 452 450 453 454 450 455 450 454 453 456 452 457 458 457 459 460 457 452 457 460 459 461 458 462 463 462 464 464 462 458 462 463 465 439 438 465 439 465 466 467 468 438 467 438 440 469 470 468 469 468 471 472 473 474 475 473 470 473 475 474 475 470 476 477 478 479 479 478 480 481 478 473 478 481 480 482 483 484 485 483 478 483 485 484 486 483 487 488 483 489 483 488 487 490 491 492 493 491 486 491 493 492 494 495 496 496 495 490 495 494 422 422 494 423 491 490 495 483 486 491 483 482 489 478 477 485 473 472 481 470 469 476 468 467 471 465 463 466 457 458 461 450 452 456 450 449 455 442 441 443 435 434 441 430 429 428 422 421 424 428 427 430 497 498 499 500 501 502 501 500 503 504 502 501 505 500 506 507 508 506 508 507 509 510 506 508 511 507 512 513 514 512 514 513 515 516 513 517 518 517 519 520 519 521 522 523 524 522 521 523 525 523 526 527 528 529 527 526 528 530 528 531 532 533 534 535 533 532 535 531 533 499 533 497 536 537 538 538 539 540 539 538 537 498 497 537 537 536 498 539 541 540 533 499 534 531 535 530 528 530 529 526 527 525 523 525 524 521 522 520 519 520 518 517 518 516 513 516 515 512 514 511 507 511 509 506 510 505 500 505 503 502 504 541 541 539 502 542 543 544 545 546 547 548 549 550 551 552 553 554 551 555 556 543 557 558 559 560 551 542 544 543 542 557 561 562 563 564 565 566 565 564 567 562 561 568 569 544 543 570 545 571 550 568 561 549 572 568 562 573 574 574 575 562 576 562 575 577 578 579 579 567 564 580 581 582 583 584 585 586 587 588 558 589 581 581 590 591 583 592 584 588 585 593 586 558 594 589 558 560 592 583 591 585 588 587 587 586 594 558 586 559 595 596 597 598 599 600 601 602 567 599 598 603 597 604 595 605 606 607 599 608 609 603 604 597 596 595 610 552 549 611 606 596 610 612 605 613 608 591 614 604 603 598 606 605 596 613 605 607 591 612 615 608 599 591 605 612 616 612 591 616 565 597 566 597 565 603 565 617 618 602 619 620 618 621 622 619 622 623 567 624 625 626 618 617 619 602 622 624 602 620 565 627 628 621 618 626 567 627 565 617 565 628 624 567 602 627 567 625 567 579 601 629 630 576 575 631 632 633 634 635 622 621 623 618 636 565 603 565 636 599 609 600 616 591 637 590 581 580 587 594 638 639 640 638 641 642 643 642 644 643 642 645 646 647 648 544 642 646 649 650 651 647 544 652 653 650 649 654 651 650 654 648 647 651 655 544 648 653 656 657 644 649 650 647 544 569 652 544 655 656 653 652 642 657 645 649 644 642 657 642 653 594 658 659 660 578 661 575 629 576 662 630 663 664 633 635 578 631 575 665 575 632 630 629 663 630 634 633 633 664 564 664 579 564 631 578 660 666 641 667 594 639 638 668 669 670 671 672 673 674 594 659 640 639 675 669 640 675 676 668 670 666 671 642 671 658 594 677 594 674 669 668 640 641 676 667 671 666 672 658 671 673 639 594 677 676 641 668 641 666 642 585 584 593 591 678 592 581 589 582 678 591 590 591 615 614 591 583 637 679 575 665 634 630 662 579 664 577 578 577 661 629 575 679 562 576 563 568 680 681 562 681 685 573 682 574 568 686 687 681 562 568 688 562 685 682 573 689 690 682 689 691 684 683 680 568 687 573 562 688 683 682 690 692 684 691 686 684 692 684 686 572 686 568 572 568 550 549 543 556 546 549 693 611 547 546 556 548 570 571 551 553 555 546 545 570 570 548 550 549 548 693 552 551 549 694 695 696 697 698 699 700 701 698 700 695 702 701 703 704 703 701 700 698 697 700 695 700 697 695 694 702 699 705 697 706 697 705 706 696 695 707 708 705 707 705 709 710 705 708 710 711 706 712 713 708 714 708 713 714 715 710 716 702 694 717 700 702 700 717 703 718 704 703 720 721 719 721 720 713 722 714 713 722 713 723 724 725 714 725 724 726 714 722 724 713 720 723 704 718 727 728 718 703 703 717 728 702 716 717 715 714 725 708 714 710 713 712 721 711 710 715 705 710 706 708 707 712 696 706 711 697 706 695 705 699 709 729 730 731 732 733 730 734 735 733 736 737 735 738 739 736 740 736 734 741 734 732 742 732 729 743 729 744 745 746 738 747 738 740 748 740 741 749 741 742 750 742 743 751 739 746 739 751 752 753 737 754 754 739 755 739 754 737 737 736 739 757 758 756 757 744 759 744 757 760 761 744 762 744 761 743 762 744 760 743 763 750 763 743 761 764 746 765 746 764 766 746 766 751 750 763 767 757 756 760 739 752 755 742 750 749 741 749 748 740 748 747 738 747 745 746 745 765 729 743 742 732 742 741 734 741 740 736 740 738 739 738 746 731 744 729 730 729 732 733 732 734 735 734 736 744 731 759 768 769 770 771 768 772 773 774 775 776 775 774 776 770 769 777 778 774 779 774 778 779 780 776 781 782 778 783 778 782 783 784 779 783 785 786 772 789 771 789 790 771 791 771 790 775 792 773 792 775 791 769 791 775 791 769 771 789 772 793 786 787 783 784 783 787 778 783 779 782 781 794 780 779 784 774 779 776 778 777 781 770 776 780 775 776 769 774 773 777 769 768 771 795 794 796 794 795 782 785 783 797 795 783 782 783 795 797 788 787 786 798 799 800 801 802 803 804 805 806 807 803 808 809 803 810 801 811 805 812 810 807 813 810 814 809 815 811 816 814 812 814 816 800 817 806 818 806 817 804 802 808 803 802 801 804 805 804 801 803 807 810 803 809 801 811 801 809 810 812 814 810 813 809 815 809 813 800 816 798 802 819 820 808 802 821 799 823 800 814 824 813 813 825 815 825 813 824 824 800 823 824 814 800 799 798 826 821 820 827 820 821 802 822 821 827 802 817 819 817 802 804 828 829 830 831 832 829 833 834 832 835 836 837 838 839 840 843 844 845 834 848 849 848 846 847 846 848 834 850 845 844 845 847 846 847 845 850 851 852 853 852 851 843 844 843 851 838 854 841 855 830 856 835 856 857 858 846 833 859 833 831 860 831 828 861 828 855 838 855 835 862 845 858 863 858 859 864 859 860 865 860 861 841 861 838 842 841 854 838 837 839 837 838 835 835 866 836 866 835 857 834 833 846 861 841 865 860 865 864 832 831 833 829 828 831 830 855 828 856 835 855 846 858 845 854 838 840 833 859 858 831 860 859 828 861 860 855 838 861 845 862 843 858 863 862 859 864 863 867 868 869 868 867 870 871 872 870 873 870 872 873 874 875 876 877 872 878 872 877 878 879 873 880 881 877 880 877 882 883 877 881 883 884 878 885 886 881 886 885 887 888 889 883 890 875 874 891 870 875 870 891 868 892 869 868 894 887 893 887 894 886 895 888 886 895 886 896 897 898 888 898 897 899 870 867 871 872 871 876 870 873 875 874 873 879 877 876 882 872 878 873 879 878 884 881 880 885 877 883 878 884 883 889 888 881 886 881 888 883 889 888 898 875 890 891 868 891 900 900 892 868 869 892 901 886 894 896 888 895 897 902 903 904 905 906 903 907 904 908 909 908 910 911 910 912 913 912 914 915 916 917 918 917 919 920 919 921 922 921 923 921 922 920 919 920 918 917 918 915 916 915 924 914 924 913 912 913 911 910 911 909 908 909 907 904 907 902 903 902 905 906 905 925 923 925 922 924 914 916 925 923 906 926 927 928 926 929 927 926 930 929 926 931 930 926 932 931 926 933 932 926 934 933 926 935 934 926 936 935 926 937 936 926 938 937 938 926 928 939 940 941 942 943 940 944 945 943 946 947 945 948 949 947 950 951 949 952 953 951 954 955 953 956 957 955 958 959 957 960 961 962 962 963 960 963 962 959 964 941 961 941 964 939 961 960 964 959 958 963 957 956 958 955 954 956 953 952 954 951 950 952 949 948 950 947 946 948 945 944 946 943 942 944 940 939 942 965 966 967 965 968 966 965 969 968 965 970 969 965 971 970 965 972 971 965 973 972 965 974 973 965 975 974 965 976 975 965 977 976 965 978 977 978 965 967 979 980 981 982 983 984 984 985 982 985 984 980 986 987 983 988 989 987 990 991 989 992 993 991 994 995 993 996 997 995 998 999 997 983 982 986 980 979 985 1000 1001 1002 1003 981 1001 981 1003 979 1001 1000 1003 1002 1004 1000 999 998 1004 997 996 998 995 994 996 993 992 994 991 990 992 989 988 990 987 986 988 1004 1002 999 1005 1006 1007 1008 1005 1007 1005 1008 1009 1005 1009 1010 1005 1010 1011 1005 1011 1012 1005 1012 1013 1005 1013 1014 1005 1014 1015 1005 1015 1016 1005 1016 1017 1005 1017 1018 1005 1018 1006 1019 1020 1021 1022 1021 1023 1024 1023 1025 1026 1025 1027 1028 1027 1029 1030 1029 1031 1032 1031 1033 1034 1033 1035 1036 1035 1037 1038 1037 1020 1021 1022 1019 1037 1038 1036 1035 1036 1034 1033 1034 1032 1031 1032 1030 1029 1030 1028 1027 1028 1026 1025 1026 1024 1023 1024 1022 1020 1019 1038 1039 1040 1041 1042 1039 1041 1039 1042 1043 1039 1043 1044 1039 1044 1045 1039 1045 1046 1039 1046 1047 1039 1047 1048 1039 1048 1049 1039 1049 1040 1050 1051 1052 1051 1050 1053 1053 1054 1051 1055 1056 1054 1057 1058 1056 1059 1060 1061 1061 1062 1059 1062 1061 1058 1063 1064 1060 1065 1066 1064 1067 1068 1066 1069 1070 1068 1071 1072 1070 1073 1074 1072 1075 1052 1074 1052 1075 1050 1074 1073 1075 1072 1071 1073 1070 1069 1071 1068 1067 1069 1066 1065 1067 1064 1063 1065 1060 1059 1063 1058 1057 1062 1056 1055 1057 1054 1053 1055 1076 1077 1078 1079 1076 1080 1076 1079 1081 1076 1081 1082 1076 1082 1083 1076 1083 1084 1076 1084 1085 1076 1085 1086 1076 1086 1087 1076 1087 1088 1076 1088 1089 1076 1089 1077 1076 1078 1080 1090 1091 1092 1093 1094 1091 1095 1096 1094 1097 1098 1096 1099 1100 1098 1101 1102 1100 1103 1104 1102 1105 1106 1104 1107 1108 1106 1109 1110 1108 1111 1112 1110 1113 1092 1112 1092 1113 1090 1112 1111 1113 1110 1109 1111 1108 1107 1109 1106 1105 1107 1104 1103 1105 1102 1101 1103 1100 1099 1101 1098 1097 1099 1096 1095 1097 1094 1093 1095 1091 1090 1093 1114 1115 1116 1115 1114 1117 1115 1117 1118 1115 1118 1119 1115 1119 1120 1115 1121 1122 1115 1122 1123 1115 1120 1121 1115 1123 1124 1115 1124 1125 1115 1125 1126 1115 1126 1116 1127 1128 1129 1130 1129 1131 1132 1131 1133 1134 1133 1135 1136 1135 1137 1135 1136 1134 1133 1134 1132 1131 1132 1130 1129 1130 1127 1138 1139 1140 1139 1138 1128 1128 1127 1139 1141 1140 1142 1143 1142 1144 1145 1144 1146 1147 1146 1148 1149 1148 1150 1151 1150 1152 1137 1152 1136 1140 1141 1138 1142 1143 1141 1144 1145 1143 1146 1147 1145 1150 1151 1149 1152 1137 1151 1148 1149 1147 1153 1154 1155 1154 1153 1156 1154 1156 1157 1154 1157 1158 1154 1158 1159 1154 1159 1160 1154 1160 1161 1154 1161 1162 1154 1163 1164 1154 1164 1165 1154 1165 1166 1154 1166 1155 1154 1162 1163 1167 1168 1169 1170 1169 1171 1172 1171 1173 1174 1173 1175 1176 1175 1177 1178 1177 1179 1180 1181 1168 1184 1183 1185 1186 1185 1181 1185 1186 1184 1183 1184 1182 1179 1182 1178 1177 1178 1176 1175 1176 1174 1173 1174 1172 1171 1172 1170 1169 1170 1167 1168 1167 1180 1181 1180 1186 1182 1179 1183 1187 1188 1189 1187 1189 1190 1187 1191 1188 1191 1187 1192 1187 1193 1194 1187 1194 1195 1187 1195 1196 1187 1196 1197 1187 1197 1192 1187 1190 1193</p></triangles>
    </mesh></geometry>
  </library_geometries>
  <library_visual_scenes><visual_scene id="s">
    <node id="wrist_pitch_link" name="wrist_pitch_link"><instance_geometry url="#g"><bind_material><technique_common>
      <instance_material symbol="m0" target="#m0"/>
    </technique_common></bind_material></instance_geometry></node>
  </visual_scene></library_visual_scenes>
  <scene><instance_visual_scene url="#s"/></scene>
</COLLADA>
